<svg width="29" height="25" viewBox="0 0 29 25" fill="none" xmlns="http://www.w3.org/2000/svg">
<g clip-path="url(#clip0_315_417)">
<path d="M13.3887 3.56574C13.4486 3.52563 13.5117 3.49077 13.5775 3.46155L13.3887 3.56574Z" fill="white"/>
<path d="M23.5322 7.6934L23.5317 7.69433V7.69153L23.5322 7.6934Z" fill="white"/>
<path d="M22.9259 9.3064C22.894 9.32773 22.861 9.34742 22.8271 9.36541L22.9259 9.3064Z" fill="white"/>
<path d="M17.6317 4.80321C17.9197 2.52492 17.101 0.541415 15.8029 0.372922C14.5049 0.204428 13.2192 1.91475 12.9312 4.19304C12.6432 6.47132 13.4619 8.45483 14.7599 8.62332C16.0579 8.79182 17.3437 7.08149 17.6317 4.80321Z" fill="white"/>
<path d="M10.8903 9.23311C12.1522 8.88186 12.6884 6.80163 12.088 4.58677C11.4875 2.37191 9.97786 0.861152 8.71598 1.2124C7.45411 1.56365 6.91789 3.64389 7.5183 5.85875C8.11872 8.0736 9.6284 9.58436 10.8903 9.23311Z" fill="white"/>
<path d="M10.8903 9.23311C12.1522 8.88186 12.6884 6.80163 12.088 4.58677C11.4875 2.37191 9.97786 0.861152 8.71598 1.2124C7.45411 1.56365 6.91789 3.64389 7.5183 5.85875C8.11872 8.0736 9.6284 9.58436 10.8903 9.23311Z" fill="white"/>
<path d="M17.0869 23.5868C18.369 23.321 19.0401 21.2814 18.5859 19.0311C18.1316 16.7808 16.7241 15.1719 15.442 15.4377C14.1599 15.7034 13.4888 17.7431 13.9431 19.9934C14.3973 22.2437 15.8049 23.8525 17.0869 23.5868Z" fill="white"/>
<path d="M12.8385 19.606C13.4389 17.3911 12.9026 15.3109 11.6408 14.9596C10.3789 14.6084 8.8692 16.1191 8.26879 18.334C7.66837 20.5489 8.2046 22.6291 9.46647 22.9803C10.7284 23.3316 12.238 21.8208 12.8385 19.606Z" fill="white"/>
<path d="M6.68997 17.5879C8.65301 16.4394 9.71394 14.5775 9.05963 13.4291C8.40532 12.2807 6.28354 12.2808 4.3205 13.4292C2.35747 14.5777 1.29654 16.4396 1.95085 17.588C2.60516 18.7364 4.72694 18.7364 6.68997 17.5879Z" fill="white"/>
<path d="M8.85126 11.2819C9.51268 10.1377 8.46331 8.26899 6.50744 7.10806C4.55156 5.94713 2.42982 5.93357 1.7684 7.07778C1.10699 8.22198 2.15635 10.0907 4.11223 11.2516C6.06811 12.4125 8.18984 12.4261 8.85126 11.2819Z" fill="white"/>
<path d="M24.6858 20.2428C25.6112 19.3051 25.062 17.2284 23.4591 15.6042C21.8563 13.98 19.8069 13.4235 18.8815 14.3612C17.9562 15.2988 18.5054 17.3756 20.1082 18.9998C21.711 20.6239 23.7605 21.1804 24.6858 20.2428Z" fill="white"/>
<path d="M24.4216 14.0767C26.6884 14.0767 28.5259 13.0017 28.5259 11.6757C28.5259 10.3496 26.6884 9.27466 24.4216 9.27466C22.1549 9.27466 20.3174 10.3496 20.3174 11.6757C20.3174 13.0017 22.1549 14.0767 24.4216 14.0767Z" fill="white"/>
<path d="M22.8874 8.06316C24.4902 6.43901 25.0394 4.36225 24.114 3.42459C23.1887 2.48693 21.1392 3.04345 19.5364 4.66761C17.9336 6.29176 17.3844 8.36852 18.3097 9.30618C19.2351 10.2438 21.2845 9.68732 22.8874 8.06316Z" fill="white"/>
</g>
<defs>
<clipPath id="clip0_315_417">
<rect width="28" height="24" fill="white" transform="translate(0.570801 0.0678711)"/>
</clipPath>
</defs>
</svg>
