<svg width="107" height="37" viewBox="0 0 107 37" fill="none" xmlns="http://www.w3.org/2000/svg">
<g clip-path="url(#clip0_1_18)">
<mask id="mask0_1_18" style="mask-type:luminance" maskUnits="userSpaceOnUse" x="0" y="0" width="107" height="37">
<path d="M106.279 0.579102H0.420898V36.5464H106.279V0.579102Z" fill="white"/>
</mask>
<g mask="url(#mask0_1_18)">
<path d="M36.0622 21.7557L19.5676 1.13751C18.9724 0.392965 17.8372 0.392965 17.2419 1.13751L0.747397 21.7557C0.221715 22.4123 0.344442 23.3737 1.0174 23.8768L17.5119 36.2477C18.0417 36.6446 18.7699 36.6446 19.2997 36.2477L35.7942 23.8768C36.4713 23.3696 36.5919 22.4143 36.0642 21.7557H36.0622ZM18.4058 30.1993C17.1213 30.1993 16.0781 24.9896 16.0781 18.5627C16.0781 12.1359 17.1192 6.92615 18.4058 6.92615C19.6924 6.92615 20.7335 12.1359 20.7335 18.5627C20.7335 24.9896 19.6924 30.1993 18.4058 30.1993Z" fill="white"/>
<path d="M16.1113 18.5626C16.1113 19.8287 17.1381 20.8555 18.4063 20.8555C19.6745 20.8555 20.7013 19.8287 20.7013 18.5626C20.7013 17.2964 19.6745 16.2676 18.4063 16.2676C17.1381 16.2676 16.1113 17.2944 16.1113 18.5626Z" fill="white"/>
<path d="M41.1513 24.74V10.968H45.4508V24.74H41.1513Z" fill="white"/>
<path d="M47.118 24.74V14.1262C47.118 12.4857 47.7317 11.2666 48.9569 10.473H52.7103L52.7594 10.4975C51.8308 11.375 51.3665 12.6432 51.3665 14.3V14.7971H52.8576V17.7793H51.3665V24.74H47.116H47.118Z" fill="white"/>
<path d="M54.3258 24.7403C53.7797 24.2924 53.4013 23.7503 53.1947 23.1121C52.9881 22.474 52.8838 21.8644 52.8838 21.2855C52.8838 20.5737 53.0086 19.8865 53.2561 19.2217C53.5056 18.559 53.8615 18.0701 54.3258 17.7551H58.7747C58.6417 17.1762 58.4597 16.6444 58.2286 16.1637C57.9954 15.683 57.7233 15.2433 57.4083 14.8465V14.7974H62.3542C62.5854 15.1615 62.7899 15.7219 62.9638 16.4746C63.1377 17.2294 63.2256 17.9944 63.2256 18.7737V24.7403H54.3258ZM58.9752 23.9201V19.6451C58.9752 19.463 58.9711 19.2933 58.9629 19.1358C58.9547 18.9783 58.9424 18.8249 58.9261 18.6755C58.4617 18.8903 58.0486 19.2094 57.6824 19.6328C57.3183 20.0562 57.1363 20.5819 57.1363 21.2119C57.1363 21.758 57.2897 22.2899 57.5965 22.8033C57.9033 23.3167 58.3636 23.691 58.9752 23.9221V23.9201Z" fill="white"/>
<path d="M68.0735 24.74V10.968H72.324V21.633H76.9222L76.1265 24.74H68.0715H68.0735Z" fill="white"/>
<path d="M78.487 24.7402C77.9409 24.2922 77.5625 23.7502 77.3559 23.112C77.1493 22.4738 77.045 21.8643 77.045 21.2854C77.045 20.5736 77.1698 19.8863 77.4173 19.2215C77.6648 18.5588 78.0227 18.0699 78.487 17.7549H82.9359C82.8029 17.1761 82.6209 16.6443 82.3898 16.1636C82.1586 15.6829 81.8845 15.2431 81.5695 14.8463V14.7972H86.5154C86.7466 15.1613 86.9511 15.7218 87.125 16.4745C87.2989 17.2293 87.3868 17.9943 87.3868 18.7736V24.7402H78.487ZM83.1364 23.9199V19.6449C83.1364 19.4629 83.1323 19.2931 83.1241 19.1356C83.1159 18.9781 83.1036 18.8247 83.0873 18.6754C82.6229 18.8902 82.2077 19.2093 81.8436 19.6327C81.4795 20.0561 81.2975 20.5818 81.2975 21.2118C81.2975 21.7579 81.4509 22.2897 81.7577 22.8031C82.0645 23.3165 82.5248 23.6909 83.1384 23.922L83.1364 23.9199Z" fill="white"/>
<path d="M88.9532 24.7403V10.4712H93.2037V14.7973H97.7282C98.2907 15.2616 98.7469 15.9571 99.0946 16.8857C99.4423 17.8144 99.6162 18.8903 99.6162 20.1176C99.6162 20.5164 99.5548 20.9971 99.43 21.5596C99.3053 22.1241 99.1028 22.6866 98.8205 23.2491C98.5382 23.8137 98.1741 24.3107 97.7262 24.7403H88.9512H88.9532ZM93.2037 23.8955C93.9318 23.3494 94.4678 22.7276 94.8073 22.0321C95.1469 21.3366 95.3166 20.541 95.3166 19.6451C95.3166 18.7491 95.0978 17.9044 94.658 17.2089C94.2182 16.5135 93.7334 15.9816 93.2037 15.6176V23.8955Z" fill="white"/>
<path d="M100.833 24.7403L100.784 24.6912C101.116 24.278 101.378 23.8505 101.568 23.4108C101.758 22.971 101.854 22.5455 101.854 22.1303C101.854 21.799 101.758 21.4226 101.568 20.9992C101.378 20.5758 101.2 20.2076 101.034 19.8926C100.868 19.594 100.723 19.2749 100.598 18.9353C100.473 18.5958 100.412 18.203 100.412 17.7551C100.412 16.6117 100.768 15.6258 101.482 14.7974H105.808L105.857 14.8465C105.493 15.2617 105.223 15.6912 105.049 16.1392C104.875 16.5871 104.787 16.9921 104.787 17.3562C104.787 17.6712 104.853 17.9985 104.986 18.338C105.119 18.6776 105.276 19.013 105.458 19.3444C105.64 19.6594 105.822 20.0399 106.004 20.4878C106.186 20.9358 106.278 21.4246 106.278 21.9544C106.278 22.9812 105.963 23.9099 105.333 24.7383H100.833V24.7403Z" fill="white"/>
</g>
</g>
<defs>
<clipPath id="clip0_1_18">
<rect width="105.955" height="36" fill="white" transform="translate(0.420898 0.579102)"/>
</clipPath>
</defs>
</svg>
